<svg xmlns="http://www.w3.org/2000/svg" viewBox="0 0 56 56"><defs><style>.cls-1{fill:#f3d13d;}.cls-2,.cls-3{isolation:isolate;}.cls-3{font-size:10px;font-family:MicrosoftYaHei-Bold, Microsoft YaHei;font-weight:700;letter-spacing:0.03em;}.cls-3,.cls-4{fill:#574b22;}</style></defs><title>applyRepair</title><g id="图层_2" data-name="图层 2"><g id="图层_1-2" data-name="图层 1"><g id="FAB"><g id="组_343" data-name="组 343"><circle id="椭圆_8-2" data-name="椭圆 8-2" class="cls-1" cx="28" cy="28" r="28"/><g id="报修" class="cls-2"><text class="cls-3" transform="translate(18.5 44.5)">报修</text></g><g id="组_567" data-name="组 567"><path id="ic_build_24px" data-name="ic build 24px" class="cls-4" d="M31.33,32V28a7.34,7.34,0,0,0,4.37-6.79,7.56,7.56,0,0,0-4.93-7v7H25.93l-.08-7a7.48,7.48,0,0,0-.57,13.83v4a1.11,1.11,0,0,0,1.08,1.13h3.77a1,1,0,0,0,1.2-.83A.79.79,0,0,0,31.33,32Z"/><path id="ic_add_24px" data-name="ic add 24px" class="cls-4" d="M41.71,14.41l-2.49.78-.6,2.31h-1l-.69-2.31-2.4-.78v-1l2.4-.54.69-2.55h1l.6,2.55,2.49.54Z"/></g></g></g></g></g></svg>