<svg xmlns="http://www.w3.org/2000/svg" viewBox="0 0 25 25"><defs><style>.cls-1{fill:#bc9000;}.cls-2{fill:#e4cb86;}</style></defs><title>billIcon</title><g id="图层_2" data-name="图层 2"><g id="图层_1-2" data-name="图层 1"><g id="组_314" data-name="组 314"><g id="路径_1255-2" data-name="路径 1255-2"><path class="cls-1" d="M12.5,24.5A12,12,0,1,1,21,21,12,12,0,0,1,12.5,24.5Z"/><path class="cls-2" d="M12.5,1A11.5,11.5,0,0,0,4.37,20.63,11.5,11.5,0,1,0,20.63,4.37,11.43,11.43,0,0,0,12.5,1m0-1A12.5,12.5,0,1,1,0,12.5,12.5,12.5,0,0,1,12.5,0Z"/></g><path id="ic_account_balance_wallet_24px" data-name="ic account balance wallet 24px" class="cls-2" d="M17.77,16v.6a1.2,1.2,0,0,1-1.2,1.2H8.2A1.2,1.2,0,0,1,7,16.57V8.2A1.2,1.2,0,0,1,8.2,7h8.37a1.2,1.2,0,0,1,1.2,1.2v.6H12.38a1.2,1.2,0,0,0-1.2,1.2h0v4.78a1.2,1.2,0,0,0,1.2,1.2Zm-5.39-1.2h6V10h-6Zm2.39-1.5a.9.9,0,1,1,.9-.9h0a.9.9,0,0,1-.89.91h0Z"/></g></g></g></svg>