<svg xmlns="http://www.w3.org/2000/svg" viewBox="0 0 20.79 22.8"><defs><style>.cls-1{fill:#594b0d;}</style></defs><title>newReport</title><g id="图层_2" data-name="图层 2"><g id="图层_1-2" data-name="图层 1"><g id="组_567" data-name="组 567"><path id="ic_build_24px" data-name="ic build 24px" class="cls-1" d="M10.42,21.73V17.68a7.31,7.31,0,0,0,4.36-6.79,7.54,7.54,0,0,0-4.93-7v7H5l-.09-7a7.38,7.38,0,0,0-4.93,7A7.32,7.32,0,0,0,4.37,17.6l0,4a1.11,1.11,0,0,0,1.08,1.13H9.2A1,1,0,0,0,10.4,22,1.64,1.64,0,0,0,10.42,21.73Z"/><path id="ic_add_24px" data-name="ic add 24px" class="cls-1" d="M20.79,4.12l-2.48.78L17.7,7.21h-1L16,4.9l-2.4-.78v-1L16,2.55,16.67,0h1l.61,2.55,2.48.54Z"/></g></g></g></svg>