<svg xmlns="http://www.w3.org/2000/svg" viewBox="0 0 79.75 87.99"><defs><style>.cls-1{fill:#f5efea;}.cls-2{fill:#ede4dd;}.cls-3{fill:#e2d6cc;}.cls-4{fill:none;}.cls-5{fill:#ff494f;}.cls-6{fill:#fff;opacity:0.2;}.cls-10,.cls-6,.cls-9{isolation:isolate;}.cls-7{fill:#00bc8a;}.cls-8{fill:#86e4cb;}.cls-10{font-size:16px;fill:#f6f6f4;font-family:MicrosoftYaHei-Bold, Microsoft YaHei;font-weight:700;}</style></defs><title>noReport</title><g id="图层_2" data-name="图层 2"><g id="图层_1-2" data-name="图层 1"><g id="组_558" data-name="组 558"><g id="组_557" data-name="组 557"><g id="order"><path id="路径_1201" data-name="路径 1201" class="cls-1" d="M58.94,15.72V70a4.34,4.34,0,0,1-4.34,4.34H4.35A4.34,4.34,0,0,1,0,70H0V4.57A4.34,4.34,0,0,1,4.35.23H45.8Z"/><path id="路径_1202" data-name="路径 1202" class="cls-2" d="M45.8.23H44.2l8.86,10.44V65a4.35,4.35,0,0,1-4.35,4.35H0V70a4.34,4.34,0,0,0,4.35,4.34H54.6A4.34,4.34,0,0,0,58.94,70h0V15.72Z"/><path id="路径_1210" data-name="路径 1210" class="cls-3" d="M46.09,22.2H24.42a1.87,1.87,0,0,1,0-3.74H46.09a1.87,1.87,0,0,1,0,3.74Z"/><path id="路径_1216" data-name="路径 1216" class="cls-3" d="M45.82.32,59,15.92A1,1,0,0,1,59,17.36a1,1,0,0,1-.6.25H49.9a5.92,5.92,0,0,1-5.72-6.1V1a.93.93,0,0,1,.88-1A.92.92,0,0,1,45.82.32Z"/><path id="路径_1385" data-name="路径 1385" class="cls-3" d="M46.09,38.2H24.42a1.87,1.87,0,1,1,0-3.74H46.09a1.87,1.87,0,0,1,0,3.74Z"/><path id="路径_1386" data-name="路径 1386" class="cls-3" d="M46.09,54.2H24.42a1.87,1.87,0,1,1,0-3.74H46.09a1.87,1.87,0,0,1,0,3.74Z"/></g><g id="组_552" data-name="组 552"><rect id="矩形_653" data-name="矩形 653" class="cls-4" x="39.75" y="47.99" width="40" height="40"/><path id="_58128982_shock_color_grid" data-name=" 58128982 shock_color grid" class="cls-5" d="M60,51.37A16.91,16.91,0,1,0,77,68.28h0A16.92,16.92,0,0,0,60,51.37Z"/><path id="路径_1384" data-name="路径 1384" class="cls-6" d="M60,51.37A16.91,16.91,0,1,0,77,68.28h0A17,17,0,0,0,60,51.37ZM60,81.8A13.53,13.53,0,1,1,73.57,68.28h0A13.53,13.53,0,0,1,60,81.8Z"/></g></g><g id="组_314" data-name="组 314"><path id="路径_1255" data-name="路径 1255" class="cls-7" d="M14.75,15.43a5,5,0,1,1-5,5A5,5,0,0,1,14.75,15.43Z"/><path id="ic_build_24px" data-name="ic build 24px" class="cls-8" d="M15.79,23.25V22a2.26,2.26,0,0,0,1.34-2.08,2.31,2.31,0,0,0-1.51-2.14v2.12H14.14l0-2.15A2.28,2.28,0,0,0,13.94,22v1.23a.34.34,0,0,0,.33.35h1.15a.32.32,0,0,0,.37-.25Z"/></g><g id="_0" data-name=" 0" class="cls-9"><text class="cls-10" transform="translate(55.56 74.38)">0</text></g><g id="组_555" data-name="组 555"><path id="路径_1255-2" data-name="路径 1255-2" class="cls-7" d="M14.75,31.43a5,5,0,1,1-5,5A5,5,0,0,1,14.75,31.43Z"/><path id="ic_build_24px-2" data-name="ic build 24px-2" class="cls-8" d="M15.79,39.25V38a2.26,2.26,0,0,0,1.34-2.08,2.31,2.31,0,0,0-1.51-2.14v2.12H14.14l0-2.15A2.28,2.28,0,0,0,13.94,38v1.23a.34.34,0,0,0,.33.35h1.15a.32.32,0,0,0,.37-.25Z"/></g><g id="组_556" data-name="组 556"><path id="路径_1255-3" data-name="路径 1255-3" class="cls-7" d="M14.75,47.43a5,5,0,1,1-5,5A5,5,0,0,1,14.75,47.43Z"/><path id="ic_build_24px-3" data-name="ic build 24px-3" class="cls-8" d="M15.79,55.25V54a2.26,2.26,0,0,0,1.34-2.08,2.31,2.31,0,0,0-1.51-2.14v2.12H14.14l0-2.15A2.28,2.28,0,0,0,13.94,54v1.23a.34.34,0,0,0,.33.35h1.15a.32.32,0,0,0,.37-.25Z"/></g></g></g></g></svg>