<svg xmlns="http://www.w3.org/2000/svg" viewBox="0 0 87.77 97"><defs><style>.cls-1{fill:#cbcbcb;}.cls-2{fill:#dfdfdf;}.cls-3{fill:#9e9e9e;}.cls-4{fill:#faa108;}.cls-5{fill:#f9c170;}.cls-6{fill:#fada08;}.cls-7{fill:#bf5940;}.cls-8{fill:#dd8670;}.cls-9{fill:#bf6240;}.cls-10{fill:#89542b;}.cls-11{fill:#d0b400;}.cls-12{fill:none;}.cls-13{fill:#66bb6a;}.cls-14,.cls-15{fill:#fff;}.cls-14{opacity:0.2;isolation:isolate;}</style></defs><title>repairFinish</title><g id="图层_2" data-name="图层 2"><g id="图层_1-2" data-name="图层 1"><g id="reapir"><path id="路径_1221" data-name="路径 1221" class="cls-1" d="M69.83,31.53,59.69,41.66l5.07,5.09,5.07-5.08a7.16,7.16,0,0,0,0-10.13Z"/><path id="路径_1222" data-name="路径 1222" class="cls-2" d="M69.83,31.53l-1.68,1.66A7.15,7.15,0,0,1,67,41.66l-3.64,3.65,1.44,1.44,5.07-5.08a7.16,7.16,0,0,0,0-10.13Z"/><path id="路径_1223" data-name="路径 1223" class="cls-2" d="M47.77,55.62l5.84-5.83,1,1a4.32,4.32,0,0,0,6.08,0l4-4L53.6,35.59,63.74,25.46a7.17,7.17,0,0,0-10.14,0l-9.11,9.12a4.29,4.29,0,0,0,0,6.07l1,1-7.85,7.87-4.06,4.05L24,63.21a10,10,0,1,0,8.11,8.11l7.6-7.6ZM25.23,76.13a4.3,4.3,0,1,1,0-6.09h0A4.3,4.3,0,0,1,25.23,76.13Z"/><path id="路径_1224" data-name="路径 1224" class="cls-1" d="M45,58.43A129.78,129.78,0,0,1,50,29l-5.49,5.49a4.32,4.32,0,0,0,0,6.08l1,1-7.87,7.86-4.1,4.12L24,63.21a10,10,0,1,0,8.11,8.11l7.6-7.6ZM25.23,76.13a4.3,4.3,0,1,1,0-6.08h0a4.32,4.32,0,0,1,0,6.08Z"/><path id="路径_1225" data-name="路径 1225" class="cls-3" d="M39.86,58.21a2.86,2.86,0,1,0-4-4.11l-.06.06-.69.67-1.43-1.35-5.35,5.36,1.43,1.44-2,2a2.86,2.86,0,1,0,3.67,4.4,2.79,2.79,0,0,0,.38-.39L34.46,69l8.11-8.11Z"/><path id="路径_1226" data-name="路径 1226" class="cls-4" d="M76.71,22.58,42.83,6.86a5.76,5.76,0,0,0-4.87,0L4.08,22.63a2.88,2.88,0,0,1-2.39-5.25L38,.54a5.76,5.76,0,0,1,4.87,0L79.09,17.38a2.86,2.86,0,1,1-2.26,5.26l-.12-.06Z"/><path id="路径_1227" data-name="路径 1227" class="cls-5" d="M.39,21.41a2.92,2.92,0,0,1,1.3-1.16L38,3.41a5.69,5.69,0,0,1,4.87,0L79.09,20.25a2.83,2.83,0,0,1,1.26,1.16c0-.07.08-.13.13-.22a2.87,2.87,0,0,0-1.41-3.8h0L42.83.54A5.76,5.76,0,0,0,38,.54L1.69,17.38A2.87,2.87,0,0,0,.25,21.17v0c0,.09.09.14.13.22Z"/><path id="路径_1228" data-name="路径 1228" class="cls-6" d="M37.28,18.77H31.55l-2.87,5,2.87,4.95h5.73l2.87-4.95Z"/><path id="路径_1229" data-name="路径 1229" class="cls-7" d="M42,66.07,50.11,58a2.86,2.86,0,0,1,4,0h0L66.33,70.12a2.87,2.87,0,0,1,0,4.06h0l-8.11,8.1a2.86,2.86,0,0,1-4,0h0L42,70.12A2.88,2.88,0,0,1,42,66.07Z"/><path id="路径_1230" data-name="路径 1230" class="cls-5" d="M33.9,58,42,49.85a2.87,2.87,0,0,1,4.06,4.06h0L38,62A2.87,2.87,0,0,1,33.9,58Z"/><path id="路径_1231" data-name="路径 1231" class="cls-8" d="M38,62l8.11-8.11L50.12,58,42,66.07Z"/><path id="路径_1232" data-name="路径 1232" class="cls-2" d="M13.62,29.58l2,6.09L35.92,55.93l4.06-4L19.71,31.61Z"/><path id="路径_1234" data-name="路径 1234" class="cls-4" d="M39.45,56.87l-2.21-2.25L33.89,58a2.86,2.86,0,0,0,4,4l3.35-3.34Z"/><path id="路径_1235" data-name="路径 1235" class="cls-9" d="M44,64.05l1.44-1.44C44,61.35,42.69,60,41.29,58.69L37.94,62l4.06,4,2-2Z"/><path id="路径_1236" data-name="路径 1236" class="cls-1" d="M13.62,29.58l2,6.09L35.92,55.89l1.32-1.32A138.31,138.31,0,0,1,18.81,31.31Z"/><path id="路径_1238" data-name="路径 1238" class="cls-10" d="M44.09,64,42,66.07a2.86,2.86,0,0,0,0,4.05h0L54.17,82.28a2.86,2.86,0,0,0,4,0h0l2-2Z"/><path id="路径_1239" data-name="路径 1239" class="cls-11" d="M34.66,25.7l-2.87-5,1.14-1.95H31.55l-2.87,5,2.87,5h5.73l1.74-3Z"/></g><g id="组_562" data-name="组 562"><rect id="矩形_653" data-name="矩形 653" class="cls-12" x="47.77" y="57" width="40" height="40"/><path id="_58128982_shock_color_grid" data-name=" 58128982 shock_color grid" class="cls-13" d="M68.06,60.38A16.91,16.91,0,1,0,85,77.29h0A16.91,16.91,0,0,0,68.06,60.38Z"/><path id="路径_1384" data-name="路径 1384" class="cls-14" d="M68.06,60.38A16.91,16.91,0,1,0,85,77.29h0A16.93,16.93,0,0,0,68.06,60.38Zm0,30.44A13.53,13.53,0,1,1,81.58,77.29h0A13.54,13.54,0,0,1,68.06,90.82Z"/><path id="_58142322_shock_color_grid" data-name=" 58142322 shock_color grid" class="cls-15" d="M74.18,71.22l-8,8L61.93,75,59.6,77.29l6.58,6.59L76.51,73.55Z"/></g></g></g></svg>