<svg xmlns="http://www.w3.org/2000/svg" viewBox="0 0 25 25"><defs><style>.cls-1{fill:#00bc8a;}.cls-2{fill:#86e4cb;}</style></defs><title>repairOrderIcon</title><g id="图层_2" data-name="图层 2"><g id="图层_1-2" data-name="图层 1"><g id="组_314" data-name="组 314"><g id="路径_1255-2" data-name="路径 1255-2"><path class="cls-1" d="M12.5,24.5A12,12,0,1,1,21,21,12,12,0,0,1,12.5,24.5Z"/><path class="cls-2" d="M12.5,1A11.5,11.5,0,0,0,4.37,20.63,11.5,11.5,0,1,0,20.63,4.37,11.43,11.43,0,0,0,12.5,1m0-1A12.5,12.5,0,1,1,0,12.5,12.5,12.5,0,0,1,12.5,0Z"/></g><path id="ic_build_24px" data-name="ic build 24px" class="cls-2" d="M15.06,19.41v-3a5.45,5.45,0,0,0,3.25-5,5.62,5.62,0,0,0-3.67-5.23v5.17H11L11,6.06a5.47,5.47,0,0,0-3.66,5.23,5.45,5.45,0,0,0,3.24,5.05v3a.83.83,0,0,0,.81.84h2.8a.76.76,0,0,0,.89-.62A.43.43,0,0,0,15.06,19.41Z"/></g></g></g></svg>