<svg xmlns="http://www.w3.org/2000/svg" viewBox="0 0 79.69 98.23"><defs><style>.cls-1{fill:#009fd9;}.cls-2{fill:#00b8f0;}.cls-10,.cls-3{fill:none;}.cls-4,.cls-8{fill:#45413c;}.cls-4{opacity:0.15;isolation:isolate;}.cls-5{fill:#a86c4d;}.cls-6{fill:#de926a;}.cls-7{fill:#ffcebf;}.cls-10,.cls-8{stroke:#45413c;stroke-linecap:round;stroke-linejoin:round;}.cls-9{fill:#ffb59e;}.cls-11{fill:#ffe500;}</style></defs><title>sorryGesture</title><g id="图层_2" data-name="图层 2"><g id="图层_1-2" data-name="图层 1"><g id="crying_1203581_easyicon.net" data-name="crying 1203581 easyicon.net"><g id="组_347" data-name="组 347"><g id="man_bowing_1214557_easyicon.net" data-name="man bowing 1214557 easyicon.net"><path class="cls-1" d="M54.38,55.57H25.31A20.43,20.43,0,0,0,6.56,68.93L3.05,77.84c-2.82,7.5,2.11,15.7,9.84,15.7H66.8c7.5,0,12.66-8.2,9.85-15.47l-3.52-8.9C70.08,61,62.58,55.57,54.38,55.57Z"/><path class="cls-2" d="M76.64,78.07l-3.51-8.9A20.08,20.08,0,0,0,54.38,55.81H25.31A20.4,20.4,0,0,0,6.56,69.17l-3.51,8.9A11.68,11.68,0,0,0,6.56,91.43,6.88,6.88,0,0,1,7,89.33l3.05-8c2.81-7.27,9.37-12,16.64-12h26c7.26,0,13.83,4.69,16.64,12l3,8a6.72,6.72,0,0,1,.47,2.11A11.44,11.44,0,0,0,76.64,78.07Z"/><path class="cls-3" d="M54.38,55.57H25.31A20.43,20.43,0,0,0,6.56,68.93L3.05,77.84c-2.82,7.5,2.11,15.7,9.84,15.7H66.8c7.5,0,12.66-8.2,9.85-15.47l-3.52-8.9C70.08,61,62.58,55.57,54.38,55.57Z"/><ellipse class="cls-4" cx="39.85" cy="94.72" rx="39.85" ry="3.52"/><path class="cls-5" d="M39.84,23.46a21.7,21.7,0,0,0-5.62.7C29.76,25.1,24.14,26.74,19,25.8c-.47,4.69,1.88,7,1.88,7a20.8,20.8,0,0,0-4.22,12.42V56.75H62.58V45.26C62.81,33.31,52.5,23.46,39.84,23.46Z"/><path class="cls-6" d="M39.85,23.46a21.83,21.83,0,0,0-5.63.7C29.77,25.1,24.14,26.74,19,25.8c-.47,4.69,1.87,7,1.87,7L19.45,35c4.92.7,10.31-.7,14.53-1.64a22.73,22.73,0,0,1,5.63-.7c12.65,0,23,9.84,23,21.8V45.26C62.81,33.31,52.5,23.46,39.85,23.46Z"/><path class="cls-3" d="M39.84,23.46a21.7,21.7,0,0,0-5.62.7C29.76,25.1,24.14,26.74,19,25.8c-.47,4.69,1.88,7,1.88,7a20.8,20.8,0,0,0-4.22,12.42V56.75H62.58V45.26C62.81,33.31,52.5,23.46,39.84,23.46Z"/><path class="cls-7" d="M65.39,54.87a4.54,4.54,0,0,0-3.28-3.51l-1.4-.47c-2.11-.47-3.52-.24-3.52-2.35V46.67c0-2.35-2.58-3.28-4.45-2.58A35.39,35.39,0,0,1,39.85,46.2,35.35,35.35,0,0,1,27,44.09c-1.88-.7-4.46.23-4.46,2.58v2.81c0,2.11-1.64,1.41-3.75,1.41A4.5,4.5,0,0,0,14.3,54.4a4.26,4.26,0,0,0,3.54,4.87,3.82,3.82,0,0,0,.68,0h.23a21.23,21.23,0,0,0,21.1,18.05A21.62,21.62,0,0,0,60.94,59.32h.23a4,4,0,0,0,4.24-3.76A3.19,3.19,0,0,0,65.39,54.87Z"/><circle class="cls-8" cx="28.83" cy="61.2" r="1.87"/><circle class="cls-8" cx="50.86" cy="61.2" r="1.87"/><ellipse class="cls-9" cx="26.02" cy="67.06" rx="2.34" ry="1.41"/><ellipse class="cls-9" cx="53.68" cy="67.06" rx="2.34" ry="1.41"/><line class="cls-10" x1="37.03" y1="71.28" x2="42.66" y2="71.28"/><path class="cls-7" d="M39.85,90.73a2.84,2.84,0,0,0,2.81,2.81H56.25v-8l-5.62-.47A9.53,9.53,0,0,0,45,86.27l-3.75,2.11A2.57,2.57,0,0,0,39.85,90.73Z"/><line class="cls-3" x1="56.02" y1="85.57" x2="62.11" y2="82.29"/><path class="cls-7" d="M39.85,90.73A2.85,2.85,0,0,1,37,93.54H23.44v-8l5.62-.47a9.51,9.51,0,0,1,5.63,1.17l3.75,2.12A2.6,2.6,0,0,1,39.85,90.73Z"/><line class="cls-3" x1="23.67" y1="85.57" x2="17.58" y2="82.29"/><g id="组_348" data-name="组 348"><path class="cls-11" d="M49,10.57l4.68-7.26a1.3,1.3,0,0,0-.48-1.78L53,1.43,47.81,0a1.19,1.19,0,0,0-1.38.92,1.14,1.14,0,0,0,0,.26l.47,8.9a1.16,1.16,0,0,0,2.11.47Z"/><path class="cls-11" d="M64.46,17.37,71.26,12a1.23,1.23,0,0,0,.15-1.72,1.14,1.14,0,0,0-.15-.16l-4.46-3A1.3,1.3,0,0,0,65,7.53a1.07,1.07,0,0,0-.1.22L62.82,16a1.09,1.09,0,0,0,1.64,1.42Z"/><path class="cls-11" d="M30.71,10.57,26,3.31a1.3,1.3,0,0,1,.48-1.78l.22-.1L31.87,0a1.18,1.18,0,0,1,1.39.92,1.1,1.1,0,0,1,0,.26l-.47,8.9a1.15,1.15,0,0,1-2.1.47Z"/><path class="cls-11" d="M15.24,17.37,8.43,12a1.23,1.23,0,0,1-.15-1.72l.15-.16,4.46-3a1.3,1.3,0,0,1,1.77.48,1.07,1.07,0,0,1,.1.22L16.87,16a1.09,1.09,0,0,1-.33,1.51A1.07,1.07,0,0,1,15.24,17.37Z"/></g></g></g></g></g></g></svg>