<svg xmlns="http://www.w3.org/2000/svg" viewBox="0 0 20 20"><defs><style>.cls-1{fill:#64d579;}.cls-2{fill:#fff;}</style></defs><title>wechatIcon</title><g id="图层_2" data-name="图层 2"><g id="图层_1-2" data-name="图层 1"><g id="组_569" data-name="组 569"><path id="_589155315_shock_color_grid" data-name=" 589155315 shock_color grid" class="cls-1" d="M0,3.08A3,3,0,0,1,3,0h14A3,3,0,0,1,20,3v14A3,3,0,0,1,17.05,20h-14A3,3,0,0,1,0,17.05v-14Z"/><path id="路径_1371" data-name="路径 1371" class="cls-2" d="M8.08,4.23c-2.76,0-5,1.9-5,4.23A4,4,0,0,0,4.9,11.73l-.29,1.73,1.78-1a6,6,0,0,0,1.68.24l.57,0a3.55,3.55,0,0,1-.18-1.12,4.05,4.05,0,0,1,4.23-3.85H13A4.85,4.85,0,0,0,8.08,4.23ZM6.15,8.08a.77.77,0,0,1,0-1.54.76.76,0,0,1,.77.77h0A.77.77,0,0,1,6.15,8.08Zm3.47,0a.77.77,0,1,1,.77-.77A.77.77,0,0,1,9.62,8.08Zm6.92,3.46a3.66,3.66,0,0,0-3.85-3.46,3.66,3.66,0,0,0-3.84,3.46A3.67,3.67,0,0,0,12.69,15a4.16,4.16,0,0,0,1.4-.24l1.68,1L15.42,14A3.32,3.32,0,0,0,16.54,11.54Zm-5.19-.39a.57.57,0,0,1-.58-.57.58.58,0,0,1,.58-.58.57.57,0,0,1,.57.58h0a.56.56,0,0,1-.57.57Zm2.69,0a.57.57,0,0,1-.58-.57.58.58,0,1,1,1.16,0h0a.57.57,0,0,1-.58.57Z"/></g></g></g></svg>